<?xml version="1.0" encoding="utf-8"?>
<!-- Generator: Adobe Illustrator 18.1.1, SVG Export Plug-In . SVG Version: 6.00 Build 0)  -->
<svg version="1.1" id="Layer_1" xmlns="http://www.w3.org/2000/svg" xmlns:xlink="http://www.w3.org/1999/xlink" x="0px" y="0px"
	 viewBox="-363 275 64 64" enable-background="new -363 275 64 64" xml:space="preserve">
<g>
	<rect x="-347" y="276" fill="#FFFFFF" stroke="#404040" stroke-width="2" stroke-miterlimit="10" width="32" height="19"/>
	<path fill="#404040" stroke="#404040" stroke-width="2" stroke-miterlimit="10" d="M-347,327h-12.8c-1.2,0-2.2-1-2.2-2.2v-27.7
		c0-1.2,1-2.2,2.2-2.2h57.7c1.2,0,2.2,1,2.2,2.2v27.7c0,1.2-1,2.2-2.2,2.2H-315"/>
	<g>
		<path fill="none" stroke="#000000" stroke-width="2" stroke-miterlimit="10" d="M-346.5,327"/>
	</g>
	<rect x="-347" y="314" fill="#FFFFFF" stroke="#404040" stroke-width="2" stroke-miterlimit="10" width="32" height="24"/>
	<line fill="none" stroke="#FFFFFF" stroke-width="2" stroke-miterlimit="10" x1="-357" y1="302" x2="-353" y2="302"/>
	<line fill="none" stroke="#FFFFFF" stroke-width="2" stroke-miterlimit="10" x1="-351" y1="302" x2="-347" y2="302"/>
	<line fill="none" stroke="#404040" stroke-width="2" stroke-miterlimit="10" x1="-341" y1="322" x2="-321" y2="322"/>
	<line fill="none" stroke="#404040" stroke-width="2" stroke-miterlimit="10" x1="-341" y1="330" x2="-321" y2="330"/>
	<g>
		<path fill="none" stroke="#000000" stroke-width="2" stroke-miterlimit="10" d="M-347,327"/>
	</g>
</g>
</svg>
